<?xml version="1.0" encoding="UTF-8" standalone="no"?>
<svg
   xmlns:dc="http://purl.org/dc/elements/1.1/"
   xmlns:cc="http://creativecommons.org/ns#"
   xmlns:rdf="http://www.w3.org/1999/02/22-rdf-syntax-ns#"
   xmlns:svg="http://www.w3.org/2000/svg"
   xmlns="http://www.w3.org/2000/svg"
   xmlns:sodipodi="http://sodipodi.sourceforge.net/DTD/sodipodi-0.dtd"
   xmlns:inkscape="http://www.inkscape.org/namespaces/inkscape"
   xml:space="preserve"
   viewBox="19 19 187.70833 186.23611"
   height="253"
   width="255"
   y="0px"
   x="0px"
   id="Layer_1"
   version="1.1"
   sodipodi:docname="Rust UI Working Group.svg"
   inkscape:version="0.92.4 (5da689c313, 2019-01-14)"
   inkscape:export-filename="C:\Users\kiese\Downloads\Rust UI Working Group.png"
   inkscape:export-xdpi="96"
   inkscape:export-ydpi="96"><metadata
   id="metadata3803"><rdf:RDF><cc:Work
       rdf:about=""><dc:format>image/svg+xml</dc:format><dc:type
         rdf:resource="http://purl.org/dc/dcmitype/StillImage" /><dc:title></dc:title></cc:Work></rdf:RDF></metadata><defs
   id="defs3801"><inkscape:perspective
     sodipodi:type="inkscape:persp3d"
     inkscape:vp_x="0 : 53 : 1"
     inkscape:vp_y="0 : 1000 : 0"
     inkscape:vp_z="106 : 53 : 1"
     inkscape:persp3d-origin="52.999999 : 35.333332 : 1"
     id="perspective3824" /></defs><sodipodi:namedview
   pagecolor="#ffffff"
   bordercolor="#666666"
   borderopacity="1"
   objecttolerance="10"
   gridtolerance="10"
   guidetolerance="10"
   inkscape:pageopacity="0"
   inkscape:pageshadow="2"
   inkscape:window-width="1920"
   inkscape:window-height="1017"
   id="namedview3799"
   showgrid="false"
   inkscape:zoom="2.3177389"
   inkscape:cx="63.176298"
   inkscape:cy="141.93954"
   inkscape:window-x="-8"
   inkscape:window-y="-8"
   inkscape:window-maximized="1"
   inkscape:current-layer="Layer_1" /><path
   id="path3"
   d="m 201.99664,110.27749 -7.57134,-4.68676 c -0.0638,-0.73748 -0.13612,-1.47324 -0.21539,-2.20554 l 6.50647,-6.068667 c 0.66166,-0.616861 0.95803,-1.53009 0.77883,-2.414027 -0.17403,-0.887383 -0.79607,-1.617967 -1.64212,-1.933288 l -8.31744,-3.110148 c -0.20849,-0.720245 -0.42732,-1.435321 -0.65133,-2.14695 l 5.18827,-7.205894 c 0.529,-0.732306 0.63756,-1.685165 0.29294,-2.520857 -0.34463,-0.832244 -1.09762,-1.428427 -1.98847,-1.574888 l -8.77061,-1.426705 c -0.34117,-0.665107 -0.69613,-1.319875 -1.05455,-1.969474 l 3.68572,-8.08983 c 0.37737,-0.823629 0.29983,-1.781658 -0.20332,-2.529472 -0.50141,-0.75126 -1.35092,-1.190644 -2.25727,-1.156183 l -8.90157,0.310154 c -0.46007,-0.575507 -0.92874,-1.145844 -1.40605,-1.705843 l 2.04533,-8.670507 c 0.20677,-0.88049 -0.0534,-1.802334 -0.69441,-2.441594 -0.63582,-0.637538 -1.55942,-0.901168 -2.43993,-0.694399 l -8.66894,2.043565 c -0.56173,-0.475568 -1.13208,-0.945967 -1.70932,-1.406028 l 0.31188,-8.901397 c 0.0345,-0.901168 -0.40494,-1.757536 -1.1562,-2.257228 -0.75301,-0.503136 -1.70588,-0.578952 -2.52781,-0.205044 l -8.08827,3.687376 c -0.65305,-0.358399 -1.30782,-0.713352 -1.96949,-1.056244 l -1.43019,-8.772167 c -0.14474,-0.889106 -0.74094,-1.643813 -1.57492,-1.988427 -0.83226,-0.346337 -1.78685,-0.234338 -2.51917,0.292922 l -7.21122,5.188175 c -0.70991,-0.225723 -1.42327,-0.44283 -2.14353,-0.649599 l -3.11021,-8.318999 c -0.31533,-0.847752 -1.04592,-1.469782 -1.93333,-1.645535 -0.88568,-0.174031 -1.79719,0.120615 -2.41235,0.778829 l -6.06878,6.511495 c -0.73232,-0.08099 -1.46981,-0.155077 -2.20559,-0.215384 l -4.68685,-7.572909 c -0.47384,-0.766767 -1.31298,-1.233722 -2.21589,-1.233722 -0.90293,0 -1.74207,0.466955 -2.2142,1.233722 l -4.68685,7.572909 c -0.73748,0.06031 -1.47498,0.134399 -2.20731,0.215384 l -6.070488,-6.511495 c -0.615148,-0.658214 -1.528394,-0.95286 -2.412348,-0.778829 -0.8874,0.177476 -1.617998,0.797783 -1.933327,1.645535 l -3.110206,8.318999 c -0.720259,0.206769 -1.433624,0.4256 -2.145268,0.649599 l -7.209478,-5.188175 c -0.732321,-0.528983 -1.686922,-0.640983 -2.520906,-0.292922 -0.83226,0.344614 -1.430177,1.099321 -1.574919,1.988427 l -1.430178,8.772167 c -0.661673,0.342892 -1.316454,0.696122 -1.96951,1.056244 L 65.486969,37.310486 C 64.665047,36.934855 63.707,37.012394 62.959172,37.51553 c -0.751275,0.499692 -1.190667,1.35606 -1.156205,2.257228 l 0.310159,8.901397 c -0.575516,0.460061 -1.145866,0.93046 -1.709322,1.406028 l -8.668948,-2.043565 c -0.880508,-0.205045 -1.804092,0.05686 -2.441643,0.694399 -0.640995,0.63926 -0.901185,1.561104 -0.694411,2.441594 l 2.041881,8.670507 c -0.473854,0.561722 -0.942539,1.130336 -1.402609,1.705843 l -8.901568,-0.310154 c -0.897739,-0.02584 -1.755846,0.404923 -2.25727,1.156183 -0.503147,0.747814 -0.578964,1.705843 -0.205049,2.529472 l 3.687447,8.08983 c -0.358405,0.649599 -0.713367,1.304367 -1.056265,1.969474 l -8.770612,1.426705 c -0.890845,0.144738 -1.64212,0.740921 -1.988465,1.574888 -0.34462,0.835692 -0.232619,1.788551 0.292929,2.520857 l 5.188274,7.205894 c -0.225728,0.711629 -0.444563,1.426705 -0.651336,2.14695 l -8.319157,3.110148 c -0.844322,0.315321 -1.466364,1.045905 -1.64212,1.933288 -0.175758,0.88566 0.118893,1.797166 0.778844,2.414027 l 6.508174,6.068667 c -0.08099,0.7323 -0.153357,1.46978 -0.215389,2.20554 l -7.571331,4.68676 c -0.766782,0.47384 -1.233744,1.31126 -1.233744,2.21587 0,0.90462 0.466962,1.74203 1.233744,2.21415 l 7.571331,4.68675 c 0.06203,0.73748 0.134403,1.47324 0.215389,2.20554 l -6.508174,6.0704 c -0.659951,0.61512 -0.954602,1.52836 -0.778844,2.4123 0.175756,0.88738 0.797798,1.61623 1.64212,1.93328 l 8.319157,3.11015 c 0.206773,0.72024 0.425608,1.43533 0.651336,2.14694 l -5.188274,7.20763 c -0.527271,0.73403 -0.639272,1.68688 -0.292929,2.51913 0.346345,0.83568 1.099343,1.43188 1.990189,1.57489 l 8.768888,1.4267 c 0.342898,0.66511 0.694413,1.31987 1.056265,1.97293 l -3.687447,8.08638 c -0.375638,0.82191 -0.298098,1.77821 0.205049,2.52947 0.503147,0.75298 1.359531,1.19236 2.25727,1.15618 l 8.898122,-0.31187 c 0.463516,0.57894 0.930477,1.14583 1.406055,1.70928 l -2.041881,8.67224 c -0.206774,0.87875 0.05342,1.79715 0.694411,2.43643 0.635826,0.6427 1.561135,0.89943 2.441643,0.69267 l 8.668948,-2.04185 c 0.563456,0.47901 1.133806,0.94425 1.709322,1.40259 l -0.310159,8.90312 c -0.03447,0.90117 0.40493,1.75581 1.156205,2.25895 0.747828,0.50142 1.705875,0.57723 2.527797,0.20159 l 8.088263,-3.68565 c 0.651333,0.36185 1.306113,0.71335 1.96951,1.05625 l 1.430178,8.767 c 0.144742,0.89254 0.740936,1.64725 1.574919,1.99014 0.832261,0.34633 1.788585,0.23434 2.520906,-0.29121 l 7.206031,-5.1916 c 0.711644,0.22572 1.426732,0.44627 2.146992,0.65304 l 3.110208,8.31554 c 0.315327,0.84431 1.045924,1.4698 1.933325,1.6421 0.885677,0.17919 1.7972,-0.11718 2.412348,-0.77882 l 6.070501,-6.50807 c 0.73232,0.0845 1.46981,0.15509 2.2073,0.22056 l 4.68685,7.57119 c 0.47213,0.76332 1.31128,1.23372 2.21418,1.23372 0.90292,0 1.74207,-0.46868 2.21592,-1.23372 l 4.68685,-7.57119 c 0.73749,-0.0656 1.47326,-0.13612 2.20559,-0.22056 l 6.06877,6.50807 c 0.61515,0.66164 1.52839,0.95801 2.41235,0.77882 0.88739,-0.17404 1.618,-0.79779 1.93333,-1.6421 l 3.1102,-8.31554 c 0.72026,-0.20677 1.43535,-0.42732 2.147,-0.65304 l 7.20775,5.1916 c 0.73233,0.52555 1.68692,0.63754 2.51918,0.29121 0.83398,-0.34289 1.43018,-1.09931 1.57493,-1.99014 l 1.43016,-8.767 c 0.66168,-0.3429 1.31646,-0.69958 1.96952,-1.05625 l 8.08827,3.68565 c 0.82192,0.37564 1.77824,0.29983 2.52779,-0.20159 0.75128,-0.50314 1.18895,-1.35607 1.15621,-2.25895 l -0.31016,-8.90312 c 0.57552,-0.46008 1.14585,-0.92358 1.70759,-1.40259 l 8.66896,2.04185 c 0.88049,0.20676 1.80408,-0.05 2.43992,-0.69267 0.64098,-0.63928 0.90117,-1.55768 0.6944,-2.43643 l -2.04188,-8.67224 c 0.47559,-0.56345 0.94426,-1.13034 1.40261,-1.70928 l 8.90157,0.31187 c 0.89773,0.0363 1.75585,-0.4032 2.25728,-1.15618 0.50313,-0.75126 0.58068,-1.70756 0.20332,-2.52947 l -3.68572,-8.08638 c 0.36013,-0.65306 0.71335,-1.30782 1.05454,-1.97293 l 8.7706,-1.4267 c 0.89258,-0.14301 1.64385,-0.73921 1.98847,-1.57489 0.34462,-0.83225 0.23607,-1.7851 -0.29293,-2.51913 l -5.18828,-7.20763 c 0.22401,-0.71161 0.44285,-1.4267 0.65134,-2.14694 l 8.31744,-3.11015 c 0.84604,-0.31705 1.46981,-1.0459 1.64212,-1.93328 0.17921,-0.88567 -0.11717,-1.79718 -0.77885,-2.4123 l -6.50644,-6.0704 c 0.0793,-0.7323 0.15163,-1.46978 0.21539,-2.20554 l 7.57133,-4.68675 c 0.76677,-0.47212 1.23374,-1.31126 1.23374,-2.21415 0,-0.9029 -0.46524,-1.74203 -1.23202,-2.21587 z m -50.67484,62.80775 c -2.89138,-0.62375 -4.72993,-3.47372 -4.10961,-6.37366 0.61859,-2.89648 3.46688,-4.74017 6.35653,-4.11642 2.89137,0.6186 4.73338,3.47372 4.11305,6.36848 -0.62031,2.89478 -3.47031,4.74017 -6.35997,4.1216 z m -77.100403,-0.26191 c -2.891373,0.62375 -5.737945,-1.21993 -6.359987,-4.11642 -0.618595,-2.90166 1.219959,-5.74989 4.111333,-6.37364 2.891373,-0.61859 5.739668,1.22509 6.359986,4.12158 0.618595,2.89477 -1.221683,5.74817 -4.111332,6.36848 z M 53.780182,89.934875 c 1.199283,2.706949 -0.02068,5.879127 -2.72423,7.076663 -2.703554,1.200979 -5.867179,-0.02068 -7.066461,-2.729348 -1.199282,-2.708672 0.02068,-5.875681 2.724232,-7.076664 2.705277,-1.199259 5.867178,0.02068 7.066459,2.729349 z M 53.7232,81.686142 C 69.015157,58.328123 86.283139,49.83723 100.82616,47.107882 l 8.24679,8.651552 c 1.8644,1.952242 4.9522,2.024611 6.90277,0.158523 l 9.22722,-8.825583 c 19.33497,3.5995 35.70449,15.63517 45.1385,32.147384 l -6.31691,14.267048 c -1.09071,2.469165 0.0224,5.357041 2.48473,6.451191 l 12.16168,5.401833 c 2.14585,15.79834 -0.90454,37.73694 -18.59232,52.76051 l -11.32942,-2.4347 c -2.63809,-0.56516 -5.23307,1.11312 -5.79826,3.7563 l -2.68804,12.54397 c -8.29504,3.76493 -17.50677,5.85674 -27.20787,5.85674 -9.92336,0 -19.334964,-2.1952 -27.778187,-6.12037 L 82.59052,159.17831 c -0.565178,-2.63974 -3.160177,-4.32146 -5.79653,-3.75457 l -12.211651,1.76042 C 48.245829,138.37754 46.227165,118.41005 47.497737,104.82741 l 11.536198,-5.126153 c 2.464042,-1.09415 3.577169,-3.982024 2.482997,-6.451189 l -3.246845,-5.66276 M 109.07639,39.748634 c 2.13665,-2.047011 5.52599,-1.966027 7.57133,0.174031 2.04188,2.145226 1.96434,5.537958 -0.17748,7.583247 -2.13666,2.047011 -5.52601,1.967749 -7.57133,-0.175754 -2.04016,-2.141781 -1.96263,-5.534512 0.17748,-7.581524 z M 171.763,90.19506 c 1.19757,-2.70695 4.3612,-3.928609 7.06474,-2.727627 2.70357,1.19926 3.92351,4.369716 2.72424,7.076664 -1.19755,2.708672 -4.36119,3.93033 -7.06646,2.729349 -2.70012,-1.19926 -3.92007,-4.367992 -2.72252,-7.078386 z"
   inkscape:connector-curvature="0"
   sodipodi:nodetypes="cccccccccccccccccccccccccccccccccccccccscccccccccccccccccccccccccccccccccccccccscccccccccccccccccccccccccccccccccccccccscccccccccccccccccccccccccccccccccccccccsccccsccccccccscccccccccccccccscccccccccccccccccc"
   style="stroke-width:1.72309005"
   inkscape:export-xdpi="97.959183"
   inkscape:export-ydpi="97.959183" /><path
   style="stroke-width:1.26838565"
   d="m 68.41682,70.081243 0.136813,78.782697 h 89.003377 l -0.13682,-78.782697 z m 3.828049,3.544862 H 154.40583 V 145.70789 H 72.244869 Z"
   id="rect3805"
   inkscape:connector-curvature="0"
   sodipodi:nodetypes="cccccccccc"
   inkscape:export-xdpi="97.959183"
   inkscape:export-ydpi="97.959183" /><path
   style="fill:#000000;stroke-width:1.26838565"
   d="m 143.48159,74.364217 -2.18748,2.189924 3.77052,3.770446 -3.6739,3.673817 2.18996,2.187442 3.67389,-3.671336 3.4782,3.478111 2.18998,-2.187442 -3.48068,-3.480592 3.57728,-3.577221 -2.18996,-2.189923 -3.5773,3.577204 z"
   id="rect3842"
   inkscape:connector-curvature="0"
   inkscape:export-xdpi="97.959183"
   inkscape:export-ydpi="97.959183" /><path
   style="fill:#000000;stroke-width:1.26838565"
   d="m 127.66387,74.181313 v 12.574733 h 11.99529 V 74.181313 Z m 1.41208,1.107351 h 9.2603 v 10.114787 h -9.2603 z"
   id="rect3860"
   inkscape:connector-curvature="0"
   inkscape:export-xdpi="97.959183"
   inkscape:export-ydpi="97.959183" /><path
   style="fill:#000000;stroke-width:1.26838565"
   d="m 112.85301,79.898678 0.009,1.328421 h 11.99527 l -0.0169,-1.352612 z m 0,0 c 15.46704,0 9.41323,0 0,0 z"
   id="rect3860-6"
   inkscape:connector-curvature="0"
   sodipodi:nodetypes="cccccccc"
   inkscape:export-xdpi="97.959183"
   inkscape:export-ydpi="97.959183" /><path
   style="fill:#000000;stroke-width:3.33547068"
   d="m 72.032251,87.846182 0.06197,1.328421 h 82.951039 l -0.11677,-1.352595 z m 0,0 c 106.959409,0 65.095399,0 0,0 z"
   id="rect3860-6-7"
   inkscape:connector-curvature="0"
   sodipodi:nodetypes="cccccccc"
   inkscape:export-xdpi="97.959183"
   inkscape:export-ydpi="97.959183" /><text
   xml:space="preserve"
   style="font-style:normal;font-weight:normal;font-size:72.57129669px;line-height:1.25;font-family:sans-serif;letter-spacing:0px;word-spacing:0px;fill:#000000;fill-opacity:1;stroke:none;stroke-width:1.81428266"
   x="65.052544"
   y="149.17572"
   id="text3919"
   transform="scale(1.0518955,0.95066478)"
   inkscape:export-xdpi="97.959183"
   inkscape:export-ydpi="97.959183"><tspan
     sodipodi:role="line"
     id="tspan3917"
     x="65.052544"
     y="149.17572"
     style="stroke-width:1.81428266">UI</tspan></text>

</svg>